<svg width="192" height="42" viewBox="0 0 192 42" fill="none" xmlns="http://www.w3.org/2000/svg">
<path d="M76.9745 24.1595L73.6352 15.1581C73.4989 14.7899 72.9782 14.7899 72.8416 15.1581L69.5029 24.1601C69.4792 24.2241 69.4713 24.2928 69.4799 24.3605C69.4886 24.4282 69.5134 24.4928 69.5524 24.5488C69.5914 24.6048 69.6434 24.6506 69.7039 24.6822C69.7644 24.7138 69.8316 24.7302 69.8998 24.7302H76.5776C76.6458 24.7302 76.7131 24.7137 76.7736 24.6821C76.834 24.6505 76.886 24.6047 76.9249 24.5486C76.9639 24.4926 76.9887 24.428 76.9973 24.3603C77.0059 24.2926 76.998 24.2238 76.9742 24.1598M78.5171 29.2191H67.9606C67.8742 29.2191 67.79 29.2456 67.719 29.2949C67.6481 29.3442 67.594 29.414 67.564 29.495L65.4857 35.0959C65.4556 35.1769 65.4015 35.2467 65.3306 35.2961C65.2597 35.3454 65.1754 35.3718 65.089 35.3718H60.5135C60.4444 35.3718 60.3763 35.3548 60.3152 35.3224C60.2541 35.29 60.2019 35.243 60.1631 35.1858C60.1244 35.1285 60.1003 35.0625 60.0929 34.9938C60.0855 34.925 60.0951 34.8555 60.1209 34.7913L70.655 8.54917C70.6866 8.47079 70.7409 8.40364 70.8109 8.35638C70.8809 8.30912 70.9635 8.28391 71.048 8.28399H75.4291C75.6018 8.28399 75.7572 8.38893 75.8218 8.54917L86.3557 34.791C86.3816 34.8552 86.3913 34.9248 86.3839 34.9937C86.3766 35.0625 86.3525 35.1285 86.3138 35.1859C86.275 35.2432 86.2227 35.2902 86.1616 35.3227C86.1004 35.3552 86.0323 35.3721 85.963 35.3721H81.3884C81.302 35.3721 81.2176 35.3456 81.1467 35.2962C81.0758 35.2469 81.0217 35.177 80.9917 35.0959L78.9132 29.495C78.8831 29.414 78.829 29.3442 78.7581 29.2949C78.6872 29.2456 78.6029 29.2191 78.5165 29.2191M88.4994 17.4936H92.4128C92.5251 17.4936 92.6327 17.5382 92.7121 17.6176C92.7914 17.6969 92.836 17.8046 92.836 17.9168V34.9487C92.836 35.0609 92.7914 35.1685 92.7121 35.2479C92.6327 35.3273 92.5251 35.3718 92.4128 35.3718H88.4994C88.3872 35.3718 88.2796 35.3273 88.2002 35.2479C88.1209 35.1685 88.0763 35.0609 88.0763 34.9487V17.9165C88.0763 17.8043 88.1209 17.6966 88.2002 17.6173C88.2796 17.5379 88.3872 17.4933 88.4994 17.4933M107.108 21.6366C107.108 21.7489 107.064 21.8565 106.984 21.9359C106.905 22.0152 106.797 22.0598 106.685 22.0598H106.567C104.632 22.0598 103.212 22.5241 102.31 23.4528C101.406 24.3815 100.956 25.9168 100.956 28.0579V34.9487C100.956 35.0609 100.911 35.1685 100.832 35.2479C100.752 35.3273 100.645 35.3718 100.532 35.3718H96.6574C96.5452 35.3718 96.4376 35.3273 96.3582 35.2479C96.2788 35.1685 96.2343 35.0609 96.2343 34.9487V17.9165C96.2343 17.8043 96.2788 17.6966 96.3582 17.6173C96.4376 17.5379 96.5452 17.4933 96.6574 17.4933H100.494C100.606 17.4933 100.713 17.5379 100.793 17.6173C100.872 17.6966 100.917 17.8043 100.917 17.9165V21.2854H100.994C101.459 19.8924 102.194 18.8224 103.2 18.0736C104.206 17.3258 105.445 16.9514 106.915 16.9514H107.108V21.6364V21.6366ZM117.809 21.4792C117.696 21.4792 117.589 21.5238 117.509 21.6032C117.43 21.6825 117.386 21.7902 117.386 21.9024V28.9866C117.386 29.7091 117.527 30.2251 117.811 30.5346C118.094 30.844 118.585 30.9989 119.281 30.9989H119.671C119.783 30.9989 119.891 31.0435 119.97 31.1228C120.049 31.2022 120.094 31.3098 120.094 31.4221V34.987C120.094 35.0993 120.049 35.2069 119.97 35.2863C119.891 35.3656 119.783 35.4102 119.671 35.4102H118.004C116.276 35.4102 114.947 34.9653 114.019 34.0753C113.09 33.1852 112.625 31.8636 112.625 30.1089V21.9024C112.625 21.7902 112.581 21.6825 112.501 21.6032C112.422 21.5238 112.314 21.4792 112.202 21.4792H109.759C109.647 21.4792 109.539 21.4346 109.46 21.3553C109.381 21.2759 109.336 21.1683 109.336 21.0561V17.9165C109.336 17.8043 109.381 17.6966 109.46 17.6173C109.539 17.5379 109.647 17.4933 109.759 17.4933H112.202C112.315 17.4933 112.422 17.4488 112.502 17.3694C112.581 17.29 112.626 17.1824 112.626 17.0702V10.7575C112.626 10.6453 112.67 10.5376 112.749 10.4583C112.829 10.3789 112.936 10.3343 113.049 10.3343H116.962C117.074 10.3343 117.182 10.3789 117.261 10.4583C117.341 10.5376 117.385 10.6453 117.385 10.7575V17.0702C117.385 17.1824 117.43 17.29 117.509 17.3694C117.589 17.4488 117.696 17.4933 117.808 17.4933H120.638C120.75 17.4933 120.858 17.5379 120.937 17.6173C121.017 17.6966 121.061 17.8043 121.061 17.9165V21.0563C121.061 21.1686 121.017 21.2762 120.937 21.3556C120.858 21.4349 120.75 21.4795 120.638 21.4795H117.809V21.4792ZM135.728 30.0702C136.618 29.1415 137.063 27.929 137.063 26.4324C137.063 24.9367 136.618 23.7237 135.728 22.795C134.838 21.8663 133.671 21.4019 132.226 21.4019C130.781 21.4019 129.614 21.8663 128.724 22.795C127.834 23.7237 127.389 24.9367 127.389 26.4324C127.389 27.929 127.834 29.1415 128.724 30.0702C129.614 30.9989 130.781 31.4633 132.226 31.4633C133.671 31.4633 134.838 30.9989 135.728 30.0702ZM126.693 34.8299C125.377 34.082 124.338 32.9917 123.578 31.56C122.816 30.1283 122.436 28.4193 122.436 26.4324C122.436 24.4464 122.816 22.7369 123.578 21.3052C124.338 19.8735 125.377 18.784 126.693 18.0353C128.008 17.2871 129.453 16.9131 131.027 16.9131C132.42 16.9131 133.613 17.1839 134.607 17.7255C135.599 18.2672 136.392 19.0286 136.986 20.0089H137.063V17.9165C137.063 17.8043 137.108 17.6966 137.187 17.6173C137.267 17.5379 137.374 17.4933 137.487 17.4933H141.361C141.474 17.4933 141.581 17.5379 141.661 17.6173C141.74 17.6966 141.784 17.8043 141.784 17.9165V34.9484C141.784 35.0606 141.74 35.1683 141.661 35.2476C141.581 35.327 141.474 35.3716 141.361 35.3716H137.487C137.374 35.3716 137.267 35.327 137.187 35.2476C137.108 35.1683 137.063 35.0606 137.063 34.9484V32.8563H136.986C136.392 33.8372 135.599 34.5977 134.606 35.1394C133.613 35.681 132.42 35.9518 131.027 35.9518C129.453 35.9518 128.008 35.5778 126.693 34.8299ZM157.899 30.0702C158.789 29.1415 159.234 27.929 159.234 26.4324C159.234 24.9367 158.789 23.7237 157.899 22.795C157.01 21.8663 155.842 21.4019 154.397 21.4019C152.952 21.4019 151.785 21.8663 150.895 22.795C150.005 23.7237 149.56 24.9367 149.56 26.4324C149.56 27.929 150.005 29.1415 150.895 30.0702C151.785 30.9989 152.952 31.4633 154.397 31.4633C155.842 31.4633 157.01 30.9989 157.899 30.0702ZM152.017 35.1394C151.024 34.5977 150.23 33.8372 149.637 32.8563H149.56V34.9484C149.56 35.0606 149.515 35.1683 149.436 35.2476C149.357 35.327 149.249 35.3716 149.137 35.3716H145.223C145.111 35.3716 145.003 35.327 144.924 35.2476C144.845 35.1683 144.8 35.0606 144.8 34.9484V8.7063C144.8 8.59407 144.845 8.48644 144.924 8.40708C145.003 8.32773 145.111 8.28314 145.223 8.28314H149.137C149.249 8.28314 149.357 8.32773 149.436 8.40708C149.515 8.48644 149.56 8.59407 149.56 8.7063V20.0086H149.637C150.23 19.0283 151.024 18.2672 152.017 17.7255C153.01 17.1836 154.204 16.9128 155.597 16.9128C157.17 16.9128 158.615 17.2868 159.931 18.035C161.247 18.7837 162.285 19.8732 163.046 21.3046C163.807 22.7371 164.188 24.4467 164.188 26.4327C164.188 28.4196 163.807 30.1283 163.046 31.5603C162.285 32.992 161.247 34.0823 159.931 34.8299C158.616 35.5781 157.171 35.9524 155.597 35.9524C154.204 35.9524 153.011 35.6816 152.018 35.1397M170.781 35.3718H166.868C166.756 35.3718 166.648 35.3273 166.569 35.2479C166.489 35.1685 166.445 35.0609 166.445 34.9487V8.70715C166.445 8.59492 166.489 8.48729 166.569 8.40793C166.648 8.32857 166.756 8.28399 166.868 8.28399H170.781C170.894 8.28399 171.001 8.32857 171.081 8.40793C171.16 8.48729 171.205 8.59492 171.205 8.70715V34.9487C171.205 35.0609 171.16 35.1685 171.081 35.2479C171.001 35.3273 170.894 35.3718 170.781 35.3718ZM180.013 21.6344C179.364 22.1405 178.926 22.8711 178.699 23.8269C178.636 24.0904 178.842 24.3432 179.113 24.3432H186.561C186.819 24.3432 187.022 24.1118 186.98 23.8568C186.831 22.9527 186.444 22.2319 185.817 21.6925C185.082 21.0606 184.121 20.7446 182.934 20.7446C181.747 20.7446 180.773 21.0411 180.013 21.6344ZM189.551 19.4091C191.073 21.0736 191.835 23.4277 191.835 26.4714V26.9769C191.835 27.0891 191.79 27.1968 191.711 27.2761C191.631 27.3555 191.524 27.4001 191.411 27.4001H178.969C178.907 27.4002 178.846 27.4139 178.79 27.4401C178.734 27.4663 178.684 27.5045 178.644 27.5519C178.604 27.5993 178.575 27.6549 178.559 27.7147C178.543 27.7746 178.54 27.8372 178.55 27.8983C178.749 29.029 179.249 29.9272 180.051 30.5927C180.967 31.3544 182.122 31.7344 183.515 31.7344C185.313 31.7344 186.978 31.0325 188.508 29.6284C188.696 29.4569 188.992 29.4933 189.137 29.7018L191.04 32.4326C191.099 32.5175 191.126 32.6214 191.114 32.7245C191.102 32.8276 191.052 32.9227 190.975 32.9917C190.041 33.8091 189.003 34.4989 187.887 35.0429C186.649 35.6489 185.191 35.9524 183.515 35.9524C181.58 35.9524 179.89 35.5586 178.445 34.7721C177 33.9856 175.878 32.8763 175.079 31.4441C174.279 30.0124 173.879 28.355 173.879 26.4714C173.879 24.5886 174.266 22.9247 175.04 21.4795C175.814 20.0351 176.897 18.9129 178.291 18.1129C179.684 17.3136 181.309 16.9133 183.166 16.9133C185.9 16.9133 188.029 17.7456 189.551 19.4091ZM93.3472 11.197C93.3472 12.7932 92.0532 14.0872 90.4567 14.0872C88.86 14.0872 87.566 12.7932 87.566 11.1967C87.566 9.6003 88.8603 8.30628 90.4567 8.30628C92.0532 8.30628 93.3472 9.6003 93.3472 11.1967" fill="#999999"/>
<path d="M22.2866 0.651333L3.67879 8.35086C2.64402 8.77909 2.65474 10.2492 3.69599 10.6619L22.3814 18.0717C24.0231 18.7228 25.8514 18.7228 27.4932 18.0717L46.1788 10.6616C47.2198 10.2492 47.2311 8.77938 46.1958 8.35114L27.5885 0.651051C25.8909 -0.0514082 23.9839 -0.0514082 22.2863 0.651051" fill="#999999"/>
<path d="M26.5966 22.117V40.6279C26.5966 41.5081 27.4843 42.1112 28.3027 41.7868L49.124 33.705C49.3562 33.613 49.5554 33.4533 49.6957 33.2466C49.8361 33.04 49.9111 32.7959 49.911 32.5461V14.0355C49.911 13.155 49.0232 12.5521 48.2049 12.8766L27.3836 20.9583C27.1515 21.0505 26.9523 21.2102 26.812 21.4168C26.6716 21.6234 26.5966 21.8675 26.5966 22.1172" fill="#999999"/>
<path d="M21.733 23.0723L15.5537 26.0559L14.9263 26.3592L1.88222 32.6092C1.05565 33.0081 0 32.4056 0 31.487V14.1132C0 13.7809 0.170393 13.494 0.3989 13.2782C0.492644 13.1848 0.598996 13.1051 0.71486 13.0412C1.02631 12.8542 1.47091 12.8042 1.84893 12.9538L21.6292 20.7912C22.6346 21.1901 22.7136 22.599 21.733 23.0726" fill="#999999"/>
<path d="M21.7328 23.0724L15.5535 26.0559L0.398697 13.2779C0.492459 13.1847 0.598811 13.105 0.714657 13.0412C1.0261 12.8542 1.47071 12.8042 1.84873 12.9538L21.629 20.7912C22.6344 21.1901 22.7134 22.599 21.7328 23.0726" fill="#999999"/>
</svg>
