<svg width="138" height="46" viewBox="0 0 138 46" fill="none" xmlns="http://www.w3.org/2000/svg">
<path d="M136.738 31.1238C136.609 31.1293 136.485 31.176 136.384 31.2571C136.283 31.3382 136.211 31.4495 136.179 31.5745C134.768 35.5992 132.862 37.997 131.293 37.997C130.392 37.997 130.027 36.9919 130.027 35.4145C130.027 31.4709 132.388 23.1104 133.578 19.2975C133.71 18.9013 133.786 18.4887 133.804 18.0716C133.804 16.9629 133.2 16.4175 131.699 16.4175C130.081 16.4175 128.341 17.0485 126.647 20.0231C126.061 17.409 124.294 16.2643 121.82 16.2643C118.962 16.2643 116.204 18.1031 113.932 21.0822C111.661 24.0614 108.975 25.0394 106.983 24.5571C108.429 21.0191 108.966 18.378 108.966 16.413C108.966 13.3347 107.447 11.4779 104.986 11.4779C101.25 11.4779 99.0955 15.0429 99.0955 18.7927C99.0955 21.6907 100.412 24.6518 103.301 26.1166C100.876 31.5971 97.3423 36.5502 95.9992 36.5502C94.2641 36.5502 93.7458 28.0636 93.8539 21.9927C93.917 18.5088 94.2055 18.333 94.2055 17.2783C94.2055 16.6744 93.8133 16.2598 92.2359 16.2598C88.5627 16.2598 87.427 19.3696 87.2512 22.9436C87.1963 24.3006 86.9846 25.6466 86.6203 26.9548C85.0834 32.4353 81.9195 36.5908 79.8598 36.5908C78.9044 36.5908 78.6429 35.6353 78.6429 34.3824C78.6429 30.4387 80.8514 25.5126 80.8514 21.3121C80.8514 18.2203 79.4993 16.2688 76.9438 16.2688C73.9377 16.2688 69.958 19.8473 66.1947 26.5537C67.4341 21.4203 67.9434 16.4491 64.2748 16.4491C63.4797 16.4605 62.6991 16.663 61.9988 17.0395C61.7633 17.1494 61.5664 17.3278 61.4337 17.5513C61.3011 17.7748 61.2388 18.033 61.2551 18.2924C61.6066 23.7594 56.8518 37.7581 52.3403 37.7581C51.5201 37.7581 51.1235 36.8567 51.1235 35.437C51.1235 31.4844 53.4761 23.1464 54.6614 19.3245C54.802 18.907 54.881 18.4713 54.8958 18.031C54.8958 16.9854 54.2468 16.4491 52.782 16.4491C51.173 16.4491 49.4243 17.062 47.7387 20.0276C47.1483 17.4136 45.3771 16.2688 42.9073 16.2688C38.851 16.2688 34.3441 20.5549 32.334 26.1436C29.6704 33.6027 24.3026 40.8093 17.0734 40.8093C10.5158 40.8093 7.05444 35.3514 7.05444 26.7295C7.05444 14.2767 16.1946 4.10442 22.973 4.10442C26.2135 4.10442 27.7639 6.16863 27.7639 9.33704C27.7639 13.1725 25.6231 14.9527 25.6231 16.413C25.6231 16.8637 25.9927 17.3144 26.7318 17.3144C29.6794 17.3144 33.1452 13.853 33.1452 9.12972C33.1452 4.4064 29.3008 0.927002 22.5178 0.927002C11.3135 0.927002 0.0371094 12.1945 0.0371094 26.6484C0.0371094 38.1412 5.70686 45.0729 15.514 45.0729C22.2023 45.0729 28.0479 39.8719 31.1982 33.8055C31.5543 38.8353 33.8393 41.4674 37.3232 41.4674C40.4194 41.4674 42.9253 39.624 44.8408 36.3789C45.5754 39.7727 47.5449 41.4313 50.0733 41.4313C52.9848 41.4313 55.4231 39.5879 57.7352 36.1581C57.6991 38.8623 58.3121 41.3817 60.6467 41.3817C61.7464 41.3817 63.0624 41.1248 63.2968 40.1648C65.7531 30.0061 71.8239 21.7132 73.6628 21.7132C74.2126 21.7132 74.3658 22.245 74.3658 22.8715C74.3658 25.6298 72.4188 31.2906 72.4188 34.9007C72.4188 38.8037 74.0774 41.3862 77.5072 41.3862C81.3065 41.3862 85.169 36.735 87.7425 29.934C88.5492 36.2888 90.2889 41.4133 93.0156 41.4133C96.3598 41.4133 102.3 34.3733 105.901 26.9188C107.855 27.2064 109.845 26.7391 111.467 25.6118C110.576 27.8386 110.11 30.2126 110.092 32.6111C110.092 39.5293 113.396 41.4674 116.24 41.4674C119.332 41.4674 121.838 39.624 123.758 36.3789C124.389 39.304 126.011 41.4223 128.981 41.4223C133.632 41.4223 137.675 36.6674 137.675 32.7644C137.693 31.7368 137.251 31.1238 136.738 31.1238ZM40.1671 37.6364C38.2877 37.6364 37.553 35.7435 37.553 32.9221C37.553 28.023 40.9062 19.8518 44.4487 19.8518C45.9991 19.8518 46.5804 21.6546 46.5804 23.9081C46.5804 28.8703 43.394 37.6364 40.1671 37.6364ZM104.526 23.0112C103.483 21.6453 102.943 19.9609 102.999 18.2428C102.999 16.2463 103.729 14.5606 104.603 14.5606C105.477 14.5606 105.748 15.4215 105.748 16.6203C105.743 18.6214 105.027 21.5465 104.526 23.0112ZM119.097 37.6364C117.218 37.6364 116.483 35.4595 116.483 32.9221C116.483 28.1943 119.837 19.8518 123.406 19.8518C124.956 19.8518 125.506 21.6546 125.506 23.9081C125.506 28.8703 122.374 37.6364 119.097 37.6364Z" fill="#999999"/>
<path d="M136.738 31.1238C136.609 31.1293 136.485 31.176 136.384 31.2571C136.283 31.3382 136.211 31.4495 136.179 31.5745C134.768 35.5992 132.862 37.997 131.293 37.997C130.392 37.997 130.027 36.9919 130.027 35.4145C130.027 31.4709 132.388 23.1104 133.578 19.2975C133.71 18.9013 133.786 18.4887 133.804 18.0716C133.804 16.9629 133.2 16.4175 131.699 16.4175C130.081 16.4175 128.341 17.0485 126.647 20.0231C126.061 17.409 124.294 16.2643 121.82 16.2643C118.962 16.2643 116.204 18.1031 113.932 21.0822C111.661 24.0614 108.975 25.0394 106.983 24.5571C108.429 21.0191 108.966 18.378 108.966 16.413C108.966 13.3347 107.447 11.4779 104.986 11.4779C101.25 11.4779 99.0955 15.0429 99.0955 18.7927C99.0955 21.6907 100.412 24.6518 103.301 26.1166C100.876 31.5971 97.3423 36.5502 95.9992 36.5502C94.2641 36.5502 93.7458 28.0636 93.8539 21.9927C93.917 18.5088 94.2055 18.333 94.2055 17.2783C94.2055 16.6744 93.8133 16.2598 92.2359 16.2598C88.5627 16.2598 87.427 19.3696 87.2512 22.9436C87.1963 24.3006 86.9846 25.6466 86.6203 26.9548C85.0834 32.4353 81.9195 36.5908 79.8598 36.5908C78.9044 36.5908 78.6429 35.6353 78.6429 34.3824C78.6429 30.4387 80.8514 25.5126 80.8514 21.3121C80.8514 18.2203 79.4993 16.2688 76.9438 16.2688C73.9377 16.2688 69.958 19.8473 66.1947 26.5537C67.4341 21.4203 67.9434 16.4491 64.2748 16.4491C63.4797 16.4605 62.6991 16.663 61.9988 17.0395C61.7633 17.1494 61.5664 17.3278 61.4337 17.5513C61.3011 17.7748 61.2388 18.033 61.2551 18.2924C61.6066 23.7594 56.8518 37.7581 52.3403 37.7581C51.5201 37.7581 51.1235 36.8567 51.1235 35.437C51.1235 31.4844 53.4761 23.1464 54.6614 19.3245C54.802 18.907 54.881 18.4713 54.8958 18.031C54.8958 16.9854 54.2468 16.4491 52.782 16.4491C51.173 16.4491 49.4243 17.062 47.7387 20.0276C47.1483 17.4136 45.3771 16.2688 42.9073 16.2688C38.851 16.2688 34.3441 20.5549 32.334 26.1436C29.6704 33.6027 24.3026 40.8093 17.0734 40.8093C10.5158 40.8093 7.05444 35.3514 7.05444 26.7295C7.05444 14.2767 16.1946 4.10442 22.973 4.10442C26.2135 4.10442 27.7639 6.16863 27.7639 9.33704C27.7639 13.1725 25.6231 14.9527 25.6231 16.413C25.6231 16.8637 25.9927 17.3144 26.7318 17.3144C29.6794 17.3144 33.1452 13.853 33.1452 9.12972C33.1452 4.4064 29.3008 0.927002 22.5178 0.927002C11.3135 0.927002 0.0371094 12.1945 0.0371094 26.6484C0.0371094 38.1412 5.70686 45.0729 15.514 45.0729C22.2023 45.0729 28.0479 39.8719 31.1982 33.8055C31.5543 38.8353 33.8393 41.4674 37.3232 41.4674C40.4194 41.4674 42.9253 39.624 44.8408 36.3789C45.5754 39.7727 47.5449 41.4313 50.0733 41.4313C52.9848 41.4313 55.4231 39.5879 57.7352 36.1581C57.6991 38.8623 58.3121 41.3817 60.6467 41.3817C61.7464 41.3817 63.0624 41.1248 63.2968 40.1648C65.7531 30.0061 71.8239 21.7132 73.6628 21.7132C74.2126 21.7132 74.3658 22.245 74.3658 22.8715C74.3658 25.6298 72.4188 31.2906 72.4188 34.9007C72.4188 38.8037 74.0774 41.3862 77.5072 41.3862C81.3065 41.3862 85.169 36.735 87.7425 29.934C88.5492 36.2888 90.2889 41.4133 93.0156 41.4133C96.3598 41.4133 102.3 34.3733 105.901 26.9188C107.855 27.2064 109.845 26.7391 111.467 25.6118C110.576 27.8386 110.11 30.2126 110.092 32.6111C110.092 39.5293 113.396 41.4674 116.24 41.4674C119.332 41.4674 121.838 39.624 123.758 36.3789C124.389 39.304 126.011 41.4223 128.981 41.4223C133.632 41.4223 137.675 36.6674 137.675 32.7644C137.693 31.7368 137.251 31.1238 136.738 31.1238ZM40.1671 37.6364C38.2877 37.6364 37.553 35.7435 37.553 32.9221C37.553 28.023 40.9062 19.8518 44.4487 19.8518C45.9991 19.8518 46.5804 21.6546 46.5804 23.9081C46.5804 28.8703 43.394 37.6364 40.1671 37.6364ZM104.526 23.0112C103.483 21.6453 102.943 19.9609 102.999 18.2428C102.999 16.2463 103.729 14.5606 104.603 14.5606C105.477 14.5606 105.748 15.4215 105.748 16.6203C105.743 18.6214 105.027 21.5465 104.526 23.0112ZM119.097 37.6364C117.218 37.6364 116.483 35.4595 116.483 32.9221C116.483 28.1943 119.837 19.8518 123.406 19.8518C124.956 19.8518 125.506 21.6546 125.506 23.9081C125.506 28.8703 122.374 37.6364 119.097 37.6364Z" fill="#999999"/>
<path d="M136.738 31.1238C136.609 31.1293 136.485 31.176 136.384 31.2571C136.283 31.3382 136.211 31.4495 136.179 31.5745C134.768 35.5992 132.862 37.997 131.293 37.997C130.392 37.997 130.027 36.9919 130.027 35.4145C130.027 31.4709 132.388 23.1104 133.578 19.2975C133.71 18.9013 133.786 18.4887 133.804 18.0716C133.804 16.9629 133.2 16.4175 131.699 16.4175C130.081 16.4175 128.341 17.0485 126.647 20.0231C126.061 17.409 124.294 16.2643 121.82 16.2643C118.962 16.2643 116.204 18.1031 113.932 21.0822C111.661 24.0614 108.975 25.0394 106.983 24.5571C108.429 21.0191 108.966 18.378 108.966 16.413C108.966 13.3347 107.447 11.4779 104.986 11.4779C101.25 11.4779 99.0955 15.0429 99.0955 18.7927C99.0955 21.6907 100.412 24.6518 103.301 26.1166C100.876 31.5971 97.3423 36.5502 95.9992 36.5502C94.2641 36.5502 93.7458 28.0636 93.8539 21.9927C93.917 18.5088 94.2055 18.333 94.2055 17.2783C94.2055 16.6744 93.8133 16.2598 92.2359 16.2598C88.5627 16.2598 87.427 19.3696 87.2512 22.9436C87.1963 24.3006 86.9846 25.6466 86.6203 26.9548C85.0834 32.4353 81.9195 36.5908 79.8598 36.5908C78.9044 36.5908 78.6429 35.6353 78.6429 34.3824C78.6429 30.4387 80.8514 25.5126 80.8514 21.3121C80.8514 18.2203 79.4993 16.2688 76.9438 16.2688C73.9377 16.2688 69.958 19.8473 66.1947 26.5537C67.4341 21.4203 67.9434 16.4491 64.2748 16.4491C63.4797 16.4605 62.6991 16.663 61.9988 17.0395C61.7633 17.1494 61.5664 17.3278 61.4337 17.5513C61.3011 17.7748 61.2388 18.033 61.2551 18.2924C61.6066 23.7594 56.8518 37.7581 52.3403 37.7581C51.5201 37.7581 51.1235 36.8567 51.1235 35.437C51.1235 31.4844 53.4761 23.1464 54.6614 19.3245C54.802 18.907 54.881 18.4713 54.8958 18.031C54.8958 16.9854 54.2468 16.4491 52.782 16.4491C51.173 16.4491 49.4243 17.062 47.7387 20.0276C47.1483 17.4136 45.3771 16.2688 42.9073 16.2688C38.851 16.2688 34.3441 20.5549 32.334 26.1436C29.6704 33.6027 24.3026 40.8093 17.0734 40.8093C10.5158 40.8093 7.05444 35.3514 7.05444 26.7295C7.05444 14.2767 16.1946 4.10442 22.973 4.10442C26.2135 4.10442 27.7639 6.16863 27.7639 9.33704C27.7639 13.1725 25.6231 14.9527 25.6231 16.413C25.6231 16.8637 25.9927 17.3144 26.7318 17.3144C29.6794 17.3144 33.1452 13.853 33.1452 9.12972C33.1452 4.4064 29.3008 0.927002 22.5178 0.927002C11.3135 0.927002 0.0371094 12.1945 0.0371094 26.6484C0.0371094 38.1412 5.70686 45.0729 15.514 45.0729C22.2023 45.0729 28.0479 39.8719 31.1982 33.8055C31.5543 38.8353 33.8393 41.4674 37.3232 41.4674C40.4194 41.4674 42.9253 39.624 44.8408 36.3789C45.5754 39.7727 47.5449 41.4313 50.0733 41.4313C52.9848 41.4313 55.4231 39.5879 57.7352 36.1581C57.6991 38.8623 58.3121 41.3817 60.6467 41.3817C61.7464 41.3817 63.0624 41.1248 63.2968 40.1648C65.7531 30.0061 71.8239 21.7132 73.6628 21.7132C74.2126 21.7132 74.3658 22.245 74.3658 22.8715C74.3658 25.6298 72.4188 31.2906 72.4188 34.9007C72.4188 38.8037 74.0774 41.3862 77.5072 41.3862C81.3065 41.3862 85.169 36.735 87.7425 29.934C88.5492 36.2888 90.2889 41.4133 93.0156 41.4133C96.3598 41.4133 102.3 34.3733 105.901 26.9188C107.855 27.2064 109.845 26.7391 111.467 25.6118C110.576 27.8386 110.11 30.2126 110.092 32.6111C110.092 39.5293 113.396 41.4674 116.24 41.4674C119.332 41.4674 121.838 39.624 123.758 36.3789C124.389 39.304 126.011 41.4223 128.981 41.4223C133.632 41.4223 137.675 36.6674 137.675 32.7644C137.693 31.7368 137.251 31.1238 136.738 31.1238ZM40.1671 37.6364C38.2877 37.6364 37.553 35.7435 37.553 32.9221C37.553 28.023 40.9062 19.8518 44.4487 19.8518C45.9991 19.8518 46.5804 21.6546 46.5804 23.9081C46.5804 28.8703 43.394 37.6364 40.1671 37.6364ZM104.526 23.0112C103.483 21.6453 102.943 19.9609 102.999 18.2428C102.999 16.2463 103.729 14.5606 104.603 14.5606C105.477 14.5606 105.748 15.4215 105.748 16.6203C105.743 18.6214 105.027 21.5465 104.526 23.0112ZM119.097 37.6364C117.218 37.6364 116.483 35.4595 116.483 32.9221C116.483 28.1943 119.837 19.8518 123.406 19.8518C124.956 19.8518 125.506 21.6546 125.506 23.9081C125.506 28.8703 122.374 37.6364 119.097 37.6364Z" fill="#999999"/>
<path d="M136.738 31.1238C136.609 31.1293 136.485 31.176 136.384 31.2571C136.283 31.3382 136.211 31.4495 136.179 31.5745C134.768 35.5992 132.862 37.997 131.293 37.997C130.392 37.997 130.027 36.9919 130.027 35.4145C130.027 31.4709 132.388 23.1104 133.578 19.2975C133.71 18.9013 133.786 18.4887 133.804 18.0716C133.804 16.9629 133.2 16.4175 131.699 16.4175C130.081 16.4175 128.341 17.0485 126.647 20.0231C126.061 17.409 124.294 16.2643 121.82 16.2643C118.962 16.2643 116.204 18.1031 113.932 21.0822C111.661 24.0614 108.975 25.0394 106.983 24.5571C108.429 21.0191 108.966 18.378 108.966 16.413C108.966 13.3347 107.447 11.4779 104.986 11.4779C101.25 11.4779 99.0955 15.0429 99.0955 18.7927C99.0955 21.6907 100.412 24.6518 103.301 26.1166C100.876 31.5971 97.3423 36.5502 95.9992 36.5502C94.2641 36.5502 93.7458 28.0636 93.8539 21.9927C93.917 18.5088 94.2055 18.333 94.2055 17.2783C94.2055 16.6744 93.8133 16.2598 92.2359 16.2598C88.5627 16.2598 87.427 19.3696 87.2512 22.9436C87.1963 24.3006 86.9846 25.6466 86.6203 26.9548C85.0834 32.4353 81.9195 36.5908 79.8598 36.5908C78.9044 36.5908 78.6429 35.6353 78.6429 34.3824C78.6429 30.4387 80.8514 25.5126 80.8514 21.3121C80.8514 18.2203 79.4993 16.2688 76.9438 16.2688C73.9377 16.2688 69.958 19.8473 66.1947 26.5537C67.4341 21.4203 67.9434 16.4491 64.2748 16.4491C63.4797 16.4605 62.6991 16.663 61.9988 17.0395C61.7633 17.1494 61.5664 17.3278 61.4337 17.5513C61.3011 17.7748 61.2388 18.033 61.2551 18.2924C61.6066 23.7594 56.8518 37.7581 52.3403 37.7581C51.5201 37.7581 51.1235 36.8567 51.1235 35.437C51.1235 31.4844 53.4761 23.1464 54.6614 19.3245C54.802 18.907 54.881 18.4713 54.8958 18.031C54.8958 16.9854 54.2468 16.4491 52.782 16.4491C51.173 16.4491 49.4243 17.062 47.7387 20.0276C47.1483 17.4136 45.3771 16.2688 42.9073 16.2688C38.851 16.2688 34.3441 20.5549 32.334 26.1436C29.6704 33.6027 24.3026 40.8093 17.0734 40.8093C10.5158 40.8093 7.05444 35.3514 7.05444 26.7295C7.05444 14.2767 16.1946 4.10442 22.973 4.10442C26.2135 4.10442 27.7639 6.16863 27.7639 9.33704C27.7639 13.1725 25.6231 14.9527 25.6231 16.413C25.6231 16.8637 25.9927 17.3144 26.7318 17.3144C29.6794 17.3144 33.1452 13.853 33.1452 9.12972C33.1452 4.4064 29.3008 0.927002 22.5178 0.927002C11.3135 0.927002 0.0371094 12.1945 0.0371094 26.6484C0.0371094 38.1412 5.70686 45.0729 15.514 45.0729C22.2023 45.0729 28.0479 39.8719 31.1982 33.8055C31.5543 38.8353 33.8393 41.4674 37.3232 41.4674C40.4194 41.4674 42.9253 39.624 44.8408 36.3789C45.5754 39.7727 47.5449 41.4313 50.0733 41.4313C52.9848 41.4313 55.4231 39.5879 57.7352 36.1581C57.6991 38.8623 58.3121 41.3817 60.6467 41.3817C61.7464 41.3817 63.0624 41.1248 63.2968 40.1648C65.7531 30.0061 71.8239 21.7132 73.6628 21.7132C74.2126 21.7132 74.3658 22.245 74.3658 22.8715C74.3658 25.6298 72.4188 31.2906 72.4188 34.9007C72.4188 38.8037 74.0774 41.3862 77.5072 41.3862C81.3065 41.3862 85.169 36.735 87.7425 29.934C88.5492 36.2888 90.2889 41.4133 93.0156 41.4133C96.3598 41.4133 102.3 34.3733 105.901 26.9188C107.855 27.2064 109.845 26.7391 111.467 25.6118C110.576 27.8386 110.11 30.2126 110.092 32.6111C110.092 39.5293 113.396 41.4674 116.24 41.4674C119.332 41.4674 121.838 39.624 123.758 36.3789C124.389 39.304 126.011 41.4223 128.981 41.4223C133.632 41.4223 137.675 36.6674 137.675 32.7644C137.693 31.7368 137.251 31.1238 136.738 31.1238ZM40.1671 37.6364C38.2877 37.6364 37.553 35.7435 37.553 32.9221C37.553 28.023 40.9062 19.8518 44.4487 19.8518C45.9991 19.8518 46.5804 21.6546 46.5804 23.9081C46.5804 28.8703 43.394 37.6364 40.1671 37.6364ZM104.526 23.0112C103.483 21.6453 102.943 19.9609 102.999 18.2428C102.999 16.2463 103.729 14.5606 104.603 14.5606C105.477 14.5606 105.748 15.4215 105.748 16.6203C105.743 18.6214 105.027 21.5465 104.526 23.0112ZM119.097 37.6364C117.218 37.6364 116.483 35.4595 116.483 32.9221C116.483 28.1943 119.837 19.8518 123.406 19.8518C124.956 19.8518 125.506 21.6546 125.506 23.9081C125.506 28.8703 122.374 37.6364 119.097 37.6364Z" fill="#999999"/>
<path d="M136.738 31.1238C136.609 31.1293 136.485 31.176 136.384 31.2571C136.283 31.3382 136.211 31.4495 136.179 31.5745C134.768 35.5992 132.862 37.997 131.293 37.997C130.392 37.997 130.027 36.9919 130.027 35.4145C130.027 31.4709 132.388 23.1104 133.578 19.2975C133.71 18.9013 133.786 18.4887 133.804 18.0716C133.804 16.9629 133.2 16.4175 131.699 16.4175C130.081 16.4175 128.341 17.0485 126.647 20.0231C126.061 17.409 124.294 16.2643 121.82 16.2643C118.962 16.2643 116.204 18.1031 113.932 21.0822C111.661 24.0614 108.975 25.0394 106.983 24.5571C108.429 21.0191 108.966 18.378 108.966 16.413C108.966 13.3347 107.447 11.4779 104.986 11.4779C101.25 11.4779 99.0955 15.0429 99.0955 18.7927C99.0955 21.6907 100.412 24.6518 103.301 26.1166C100.876 31.5971 97.3423 36.5502 95.9992 36.5502C94.2641 36.5502 93.7458 28.0636 93.8539 21.9927C93.917 18.5088 94.2055 18.333 94.2055 17.2783C94.2055 16.6744 93.8133 16.2598 92.2359 16.2598C88.5627 16.2598 87.427 19.3696 87.2512 22.9436C87.1963 24.3006 86.9846 25.6466 86.6203 26.9548C85.0834 32.4353 81.9195 36.5908 79.8598 36.5908C78.9044 36.5908 78.6429 35.6353 78.6429 34.3824C78.6429 30.4387 80.8514 25.5126 80.8514 21.3121C80.8514 18.2203 79.4993 16.2688 76.9438 16.2688C73.9377 16.2688 69.958 19.8473 66.1947 26.5537C67.4341 21.4203 67.9434 16.4491 64.2748 16.4491C63.4797 16.4605 62.6991 16.663 61.9988 17.0395C61.7633 17.1494 61.5664 17.3278 61.4337 17.5513C61.3011 17.7748 61.2388 18.033 61.2551 18.2924C61.6066 23.7594 56.8518 37.7581 52.3403 37.7581C51.5201 37.7581 51.1235 36.8567 51.1235 35.437C51.1235 31.4844 53.4761 23.1464 54.6614 19.3245C54.802 18.907 54.881 18.4713 54.8958 18.031C54.8958 16.9854 54.2468 16.4491 52.782 16.4491C51.173 16.4491 49.4243 17.062 47.7387 20.0276C47.1483 17.4136 45.3771 16.2688 42.9073 16.2688C38.851 16.2688 34.3441 20.5549 32.334 26.1436C29.6704 33.6027 24.3026 40.8093 17.0734 40.8093C10.5158 40.8093 7.05444 35.3514 7.05444 26.7295C7.05444 14.2767 16.1946 4.10442 22.973 4.10442C26.2135 4.10442 27.7639 6.16863 27.7639 9.33704C27.7639 13.1725 25.6231 14.9527 25.6231 16.413C25.6231 16.8637 25.9927 17.3144 26.7318 17.3144C29.6794 17.3144 33.1452 13.853 33.1452 9.12972C33.1452 4.4064 29.3008 0.927002 22.5178 0.927002C11.3135 0.927002 0.0371094 12.1945 0.0371094 26.6484C0.0371094 38.1412 5.70686 45.0729 15.514 45.0729C22.2023 45.0729 28.0479 39.8719 31.1982 33.8055C31.5543 38.8353 33.8393 41.4674 37.3232 41.4674C40.4194 41.4674 42.9253 39.624 44.8408 36.3789C45.5754 39.7727 47.5449 41.4313 50.0733 41.4313C52.9848 41.4313 55.4231 39.5879 57.7352 36.1581C57.6991 38.8623 58.3121 41.3817 60.6467 41.3817C61.7464 41.3817 63.0624 41.1248 63.2968 40.1648C65.7531 30.0061 71.8239 21.7132 73.6628 21.7132C74.2126 21.7132 74.3658 22.245 74.3658 22.8715C74.3658 25.6298 72.4188 31.2906 72.4188 34.9007C72.4188 38.8037 74.0774 41.3862 77.5072 41.3862C81.3065 41.3862 85.169 36.735 87.7425 29.934C88.5492 36.2888 90.2889 41.4133 93.0156 41.4133C96.3598 41.4133 102.3 34.3733 105.901 26.9188C107.855 27.2064 109.845 26.7391 111.467 25.6118C110.576 27.8386 110.11 30.2126 110.092 32.6111C110.092 39.5293 113.396 41.4674 116.24 41.4674C119.332 41.4674 121.838 39.624 123.758 36.3789C124.389 39.304 126.011 41.4223 128.981 41.4223C133.632 41.4223 137.675 36.6674 137.675 32.7644C137.693 31.7368 137.251 31.1238 136.738 31.1238ZM40.1671 37.6364C38.2877 37.6364 37.553 35.7435 37.553 32.9221C37.553 28.023 40.9062 19.8518 44.4487 19.8518C45.9991 19.8518 46.5804 21.6546 46.5804 23.9081C46.5804 28.8703 43.394 37.6364 40.1671 37.6364ZM104.526 23.0112C103.483 21.6453 102.943 19.9609 102.999 18.2428C102.999 16.2463 103.729 14.5606 104.603 14.5606C105.477 14.5606 105.748 15.4215 105.748 16.6203C105.743 18.6214 105.027 21.5465 104.526 23.0112ZM119.097 37.6364C117.218 37.6364 116.483 35.4595 116.483 32.9221C116.483 28.1943 119.837 19.8518 123.406 19.8518C124.956 19.8518 125.506 21.6546 125.506 23.9081C125.506 28.8703 122.374 37.6364 119.097 37.6364Z" fill="#999999"/>
<path d="M136.738 31.1238C136.609 31.1293 136.485 31.176 136.384 31.2571C136.283 31.3382 136.211 31.4495 136.179 31.5745C134.768 35.5992 132.862 37.997 131.293 37.997C130.392 37.997 130.027 36.9919 130.027 35.4145C130.027 31.4709 132.388 23.1104 133.578 19.2975C133.71 18.9013 133.786 18.4887 133.804 18.0716C133.804 16.9629 133.2 16.4175 131.699 16.4175C130.081 16.4175 128.341 17.0485 126.647 20.0231C126.061 17.409 124.294 16.2643 121.82 16.2643C118.962 16.2643 116.204 18.1031 113.932 21.0822C111.661 24.0614 108.975 25.0394 106.983 24.5571C108.429 21.0191 108.966 18.378 108.966 16.413C108.966 13.3347 107.447 11.4779 104.986 11.4779C101.25 11.4779 99.0955 15.0429 99.0955 18.7927C99.0955 21.6907 100.412 24.6518 103.301 26.1166C100.876 31.5971 97.3423 36.5502 95.9992 36.5502C94.2641 36.5502 93.7458 28.0636 93.8539 21.9927C93.917 18.5088 94.2055 18.333 94.2055 17.2783C94.2055 16.6744 93.8133 16.2598 92.2359 16.2598C88.5627 16.2598 87.427 19.3696 87.2512 22.9436C87.1963 24.3006 86.9846 25.6466 86.6203 26.9548C85.0834 32.4353 81.9195 36.5908 79.8598 36.5908C78.9044 36.5908 78.6429 35.6353 78.6429 34.3824C78.6429 30.4387 80.8514 25.5126 80.8514 21.3121C80.8514 18.2203 79.4993 16.2688 76.9438 16.2688C73.9377 16.2688 69.958 19.8473 66.1947 26.5537C67.4341 21.4203 67.9434 16.4491 64.2748 16.4491C63.4797 16.4605 62.6991 16.663 61.9988 17.0395C61.7633 17.1494 61.5664 17.3278 61.4337 17.5513C61.3011 17.7748 61.2388 18.033 61.2551 18.2924C61.6066 23.7594 56.8518 37.7581 52.3403 37.7581C51.5201 37.7581 51.1235 36.8567 51.1235 35.437C51.1235 31.4844 53.4761 23.1464 54.6614 19.3245C54.802 18.907 54.881 18.4713 54.8958 18.031C54.8958 16.9854 54.2468 16.4491 52.782 16.4491C51.173 16.4491 49.4243 17.062 47.7387 20.0276C47.1483 17.4136 45.3771 16.2688 42.9073 16.2688C38.851 16.2688 34.3441 20.5549 32.334 26.1436C29.6704 33.6027 24.3026 40.8093 17.0734 40.8093C10.5158 40.8093 7.05444 35.3514 7.05444 26.7295C7.05444 14.2767 16.1946 4.10442 22.973 4.10442C26.2135 4.10442 27.7639 6.16863 27.7639 9.33704C27.7639 13.1725 25.6231 14.9527 25.6231 16.413C25.6231 16.8637 25.9927 17.3144 26.7318 17.3144C29.6794 17.3144 33.1452 13.853 33.1452 9.12972C33.1452 4.4064 29.3008 0.927002 22.5178 0.927002C11.3135 0.927002 0.0371094 12.1945 0.0371094 26.6484C0.0371094 38.1412 5.70686 45.0729 15.514 45.0729C22.2023 45.0729 28.0479 39.8719 31.1982 33.8055C31.5543 38.8353 33.8393 41.4674 37.3232 41.4674C40.4194 41.4674 42.9253 39.624 44.8408 36.3789C45.5754 39.7727 47.5449 41.4313 50.0733 41.4313C52.9848 41.4313 55.4231 39.5879 57.7352 36.1581C57.6991 38.8623 58.3121 41.3817 60.6467 41.3817C61.7464 41.3817 63.0624 41.1248 63.2968 40.1648C65.7531 30.0061 71.8239 21.7132 73.6628 21.7132C74.2126 21.7132 74.3658 22.245 74.3658 22.8715C74.3658 25.6298 72.4188 31.2906 72.4188 34.9007C72.4188 38.8037 74.0774 41.3862 77.5072 41.3862C81.3065 41.3862 85.169 36.735 87.7425 29.934C88.5492 36.2888 90.2889 41.4133 93.0156 41.4133C96.3598 41.4133 102.3 34.3733 105.901 26.9188C107.855 27.2064 109.845 26.7391 111.467 25.6118C110.576 27.8386 110.11 30.2126 110.092 32.6111C110.092 39.5293 113.396 41.4674 116.24 41.4674C119.332 41.4674 121.838 39.624 123.758 36.3789C124.389 39.304 126.011 41.4223 128.981 41.4223C133.632 41.4223 137.675 36.6674 137.675 32.7644C137.693 31.7368 137.251 31.1238 136.738 31.1238ZM40.1671 37.6364C38.2877 37.6364 37.553 35.7435 37.553 32.9221C37.553 28.023 40.9062 19.8518 44.4487 19.8518C45.9991 19.8518 46.5804 21.6546 46.5804 23.9081C46.5804 28.8703 43.394 37.6364 40.1671 37.6364ZM104.526 23.0112C103.483 21.6453 102.943 19.9609 102.999 18.2428C102.999 16.2463 103.729 14.5606 104.603 14.5606C105.477 14.5606 105.748 15.4215 105.748 16.6203C105.743 18.6214 105.027 21.5465 104.526 23.0112ZM119.097 37.6364C117.218 37.6364 116.483 35.4595 116.483 32.9221C116.483 28.1943 119.837 19.8518 123.406 19.8518C124.956 19.8518 125.506 21.6546 125.506 23.9081C125.506 28.8703 122.374 37.6364 119.097 37.6364Z" fill="#999999"/>
</svg>
