<svg width="288" height="32" viewBox="0 0 288 32" fill="none" xmlns="http://www.w3.org/2000/svg">
<path d="M67.8216 29.2989C69.6777 27.5358 70.7932 25.1101 70.9349 22.5288C70.973 21.2174 70.7527 19.9117 70.2845 18.6896C69.8162 17.4675 69.111 16.3541 68.211 15.4158C67.311 14.4776 66.2346 13.7337 65.0461 13.2286C63.8577 12.7236 62.5815 12.4677 61.2938 12.4763C60.4354 12.4731 59.5807 12.5918 58.7544 12.8288C58.2913 10.6338 57.386 8.56048 56.0959 6.74015C54.8057 4.91982 53.1589 3.39205 51.2594 2.25347C48.8252 0.775468 46.0434 -0.00325329 43.2096 1.02156e-05C38.5714 1.02156e-05 36.3695 1.55573 36.3695 1.55573C35.9632 1.73482 35.6194 2.03484 35.3834 2.41644C35.1474 2.79804 35.0301 3.2434 35.0469 3.69411V29.9563C35.0499 30.4932 35.26 31.0073 35.6318 31.3878C36.0036 31.7682 36.5074 31.9845 37.0343 31.9898H60.9749C63.5124 32.0262 65.9655 31.062 67.8216 29.2989Z" fill="#999999"/>
<path d="M32.0586 31.2644C33.3054 22.386 32.7807 14.2622 32.0586 5.35471C32.0929 5.05318 31.9514 4.75747 31.6997 4.59724C31.5761 4.51683 31.4327 4.4738 31.286 4.47316C31.1393 4.47252 30.9955 4.51429 30.8712 4.59361C30.747 4.67294 30.6473 4.78657 30.5839 4.92129C30.5205 5.05602 30.4959 5.20631 30.513 5.35471C29.8553 14.185 29.3506 22.4618 30.513 31.2644C30.5346 31.4578 30.6254 31.6363 30.7679 31.7659C30.9104 31.8954 31.0948 31.9671 31.2858 31.9671C31.4768 31.9671 31.6612 31.8954 31.8037 31.7659C31.9463 31.6363 32.037 31.4578 32.0586 31.2644Z" fill="#999999"/>
<path d="M26.9412 31.7836C27.0893 31.6524 27.1858 31.4711 27.213 31.2731C28.181 23.6839 28.1853 16 27.223 8.41079C27.2024 8.20639 27.108 8.01706 26.9583 7.87941C26.8085 7.74176 26.614 7.66556 26.4123 7.66556C26.2106 7.66556 26.0161 7.74176 25.8664 7.87941C25.7166 8.01706 25.6223 8.20639 25.6016 8.41079C24.7352 16.006 24.7352 23.6779 25.6016 31.2731C25.6289 31.4711 25.7254 31.6524 25.8734 31.7836C26.0215 31.9148 26.2111 31.987 26.4073 31.987C26.6035 31.987 26.7932 31.9148 26.9412 31.7836Z" fill="#999999"/>
<path d="M22.3517 31.2542C23.5041 23.1114 23.1467 15.799 22.3603 7.6373C22.3174 7.22943 21.9785 6.92353 21.5782 6.92353C21.1764 6.92353 20.839 7.22943 20.7961 7.6373C20.0554 15.6941 19.6808 23.2163 20.7961 31.2542C20.8081 31.456 20.8953 31.6456 21.0398 31.7842C21.1844 31.9228 21.3754 32 21.5739 32C21.7724 32 21.9634 31.9228 22.1079 31.7842C22.2525 31.6456 22.3397 31.456 22.3517 31.2542Z" fill="#999999"/>
<path d="M17.2329 31.7877C17.3786 31.6579 17.4731 31.4787 17.4989 31.2833C18.4686 24.203 18.4767 17.0204 17.5261 9.93737C17.5261 9.71967 17.4412 9.51089 17.2901 9.35696C17.139 9.20302 16.9341 9.11654 16.7204 9.11654C16.5067 9.11654 16.3018 9.20302 16.1507 9.35696C15.9996 9.51089 15.9147 9.71967 15.9147 9.93737C15.0197 17.0235 15.0197 24.1972 15.9147 31.2833C15.9405 31.4787 16.0351 31.6579 16.1807 31.7877C16.3264 31.9174 16.5133 31.9889 16.7068 31.9889C16.9003 31.9889 17.0873 31.9174 17.2329 31.7877Z" fill="#999999"/>
<path d="M12.5976 31.3401C13.3182 25.6985 13.8715 20.8099 12.6433 15.2746C12.6314 15.0678 12.5423 14.8735 12.3944 14.7313C12.2465 14.5891 12.0509 14.5099 11.8476 14.5097C11.6443 14.5095 11.4485 14.5884 11.3004 14.7303C11.1523 14.8722 11.0629 15.0664 11.0505 15.2731C9.89812 20.772 10.4414 25.7757 11.0963 31.3401C11.1255 31.5215 11.217 31.6864 11.3545 31.8054C11.492 31.9244 11.6665 31.9898 11.8469 31.9898C12.0274 31.9898 12.2019 31.9244 12.3394 31.8054C12.4769 31.6864 12.5684 31.5215 12.5976 31.3401Z" fill="#999999"/>
<path d="M7.77058 30.5958C8.55697 24.906 8.92443 20.1049 7.79917 14.4341C7.77409 14.2305 7.67694 14.0433 7.52595 13.9076C7.37497 13.7719 7.18054 13.697 6.97918 13.697C6.77782 13.697 6.58339 13.7719 6.43241 13.9076C6.28142 14.0433 6.18427 14.2305 6.15919 14.4341C5.13831 20.0466 5.47574 24.992 6.18778 30.5958C6.26356 31.445 7.67764 31.4363 7.77058 30.5958Z" fill="#999999"/>
<path d="M2.86206 27.8558C3.68563 24 4.08884 20.9439 2.90925 17.1828H2.90782C2.89064 16.9735 2.79688 16.7784 2.64513 16.6362C2.49338 16.494 2.29473 16.415 2.08854 16.415C1.88236 16.415 1.6837 16.494 1.53195 16.6362C1.38021 16.7784 1.28645 16.9735 1.26927 17.1828C0.331315 20.9541 0.621565 24.0758 1.33218 27.8558C1.34875 28.0508 1.43651 28.2325 1.57814 28.3648C1.71976 28.4972 1.90495 28.5706 2.09712 28.5706C2.28929 28.5706 2.47448 28.4972 2.61611 28.3648C2.75773 28.2325 2.84549 28.0508 2.86206 27.8558Z" fill="#999999"/>
<path d="M158.731 18.7467V4.89345H162.951V26.6287H159.2L151.463 14.6862C150.995 13.9697 150.291 12.7754 150.057 12.2978V26.6287H145.837V4.89345H149.822L157.325 16.3582C157.793 17.0747 158.497 18.269 158.731 18.7467Z" fill="#999999"/>
<path fill-rule="evenodd" clip-rule="evenodd" d="M174.908 26.6287H168.578V5.1323H175.377C181.472 5.1323 185.927 7.99848 185.927 15.8805C185.927 23.5236 180.3 26.6287 174.908 26.6287ZM175.142 9.19272H172.798V22.5682H174.908C179.362 22.5682 181.472 19.9409 181.472 15.8805C181.472 11.3424 179.597 9.19272 175.142 9.19272Z" fill="#999999"/>
<path d="M210.543 26.6287V4.89345H214.998V22.3294H223.438V26.6287H210.543Z" fill="#999999"/>
<path fill-rule="evenodd" clip-rule="evenodd" d="M276.891 26.6287H270.561V5.1323H277.36C282.752 5.1323 286.738 7.28194 287.676 13.0143V18.5078C286.503 24.2402 281.58 26.6287 276.891 26.6287ZM277.126 9.19272H274.781V22.5682H276.891C281.346 22.5682 283.456 19.9409 283.456 15.8805C283.456 11.3424 281.58 9.19272 277.126 9.19272Z" fill="#999999"/>
<path d="M87.9291 17.5524C84.178 16.597 81.3647 15.4028 81.3647 11.1035C81.3647 7.28194 84.4124 4.89345 88.398 4.89345H89.1013C92.3835 4.89345 94.728 6.0877 96.838 8.23733L93.7902 11.3424C92.3835 9.90927 90.7424 9.19272 88.8669 9.19272C86.5224 9.19272 85.8191 10.1481 85.8191 11.1035C85.8191 12.5366 86.7569 13.0143 90.0391 13.7308C93.3213 14.4474 97.0724 15.6416 97.0724 20.4186C97.0724 24.479 94.4935 27.3452 88.6324 27.3452C85.1158 27.3452 82.068 25.6733 80.4269 23.2848L83.4747 20.4186C84.8813 22.0905 86.7569 22.8071 88.8669 22.8071C91.4458 22.8071 92.618 22.0905 92.618 20.4186C92.618 18.9855 91.9146 18.5078 87.9291 17.5524Z" fill="#999999"/>
<path fill-rule="evenodd" clip-rule="evenodd" d="M109.498 27.1064C103.871 27.1064 100.355 22.5682 100.355 15.8805C100.355 9.19272 103.871 4.65461 109.498 4.65461C115.359 4.65461 118.876 9.19272 118.876 15.8805C118.876 22.5682 115.359 27.1064 109.498 27.1064ZM109.732 8.95388C106.216 8.95388 104.809 12.0589 104.809 15.8805C104.809 19.7021 106.216 22.8071 109.732 22.8071C113.249 22.8071 114.656 19.7021 114.656 15.8805C114.656 12.0589 113.249 8.95388 109.732 8.95388Z" fill="#999999"/>
<path d="M136.225 17.0747V4.65461H140.445V16.8359C140.445 23.2848 137.162 26.8675 131.77 26.8675C126.612 26.8675 123.096 23.2848 123.096 17.0747V4.89345H127.316V17.0747C127.316 20.6574 128.957 22.8071 131.77 22.8071C134.583 22.8071 136.225 20.6574 136.225 17.0747Z" fill="#999999"/>
<path d="M198.821 27.1064C193.195 27.1064 189.443 22.8071 189.443 15.8805C189.443 9.19272 193.429 4.65461 199.056 4.65461C203.041 4.65461 205.386 6.56539 206.792 9.43157L202.807 11.3424C201.869 9.90927 200.697 8.95388 198.821 8.95388C195.773 8.95388 193.898 11.8201 193.898 15.8805C193.898 19.9409 195.773 22.8071 199.056 22.8071C200.931 22.8071 202.103 21.8517 203.276 19.9409L206.792 22.0905C205.151 25.1956 202.807 27.1064 198.821 27.1064Z" fill="#999999"/>
<path fill-rule="evenodd" clip-rule="evenodd" d="M234.457 27.1064C228.83 27.1064 225.313 22.5682 225.313 15.8805C225.313 9.19272 228.83 4.65461 234.457 4.65461C240.083 4.65461 243.6 9.19272 243.6 15.8805C243.6 22.5682 240.318 27.1064 234.457 27.1064ZM234.691 8.95388C231.175 8.95388 229.768 12.0589 229.768 15.8805C229.768 19.7021 231.175 22.8071 234.691 22.8071C238.208 22.8071 239.615 19.7021 239.615 15.8805C239.615 12.0589 238.208 8.95388 234.691 8.95388Z" fill="#999999"/>
<path d="M260.949 17.0747V4.65461H265.169V16.8359C265.169 23.2848 261.887 26.8675 256.494 26.8675C251.337 26.8675 247.82 23.2848 247.82 17.0747V4.89345H252.04V17.0747C252.04 20.6574 253.681 22.8071 256.494 22.8071C259.308 22.8071 260.949 20.6574 260.949 17.0747Z" fill="#999999"/>
</svg>
