<svg width="127" height="52" viewBox="0 0 127 52" fill="none" xmlns="http://www.w3.org/2000/svg">
<path fill-rule="evenodd" clip-rule="evenodd" d="M126.037 26.8678C126.037 17.9813 121.697 10.9693 113.402 10.9693C105.072 10.9693 100.032 17.9813 100.032 26.7984C100.032 37.247 105.982 42.5234 114.522 42.5234C118.687 42.5234 121.837 41.5861 124.217 40.267V33.3244C121.837 34.5047 119.107 35.2336 115.642 35.2336C112.247 35.2336 109.237 34.0534 108.852 29.9573H125.967C125.967 29.506 126.037 27.7009 126.037 26.8678ZM108.747 23.5701C108.747 19.6475 111.162 18.016 113.367 18.016C115.502 18.016 117.777 19.6475 117.777 23.5701H108.747ZM86.5221 10.9693C83.0921 10.9693 80.8871 12.5661 79.6621 13.6769L79.2071 11.5247H71.5071V52L80.2571 50.1602L80.2921 40.3364C81.5521 41.239 83.4071 42.5234 86.4871 42.5234C92.7521 42.5234 98.4571 37.5247 98.4571 26.5207C98.4221 16.4539 92.6471 10.9693 86.5221 10.9693ZM84.4221 34.8865C82.3571 34.8865 81.1321 34.1575 80.2921 33.255L80.2571 20.3765C81.1671 19.3698 82.4271 18.6756 84.4221 18.6756C87.6071 18.6756 89.8121 22.2163 89.8121 26.7637C89.8121 31.4152 87.6421 34.8865 84.4221 34.8865ZM59.4671 8.92123L68.2521 7.04673V0L59.4671 1.83979V8.92123ZM59.4671 11.5594H68.2521V41.9332H59.4671V11.5594ZM50.0521 14.1282L49.4921 11.5594H41.9321V41.9332H50.6821V21.3485C52.7471 18.6756 56.2471 19.1615 57.3321 19.5434V11.5594C56.2121 11.1429 52.1171 10.3792 50.0521 14.1282ZM32.5521 4.0267L24.0121 5.83178L23.9771 33.6368C23.9771 38.7744 27.8621 42.5581 33.0421 42.5581C35.9121 42.5581 38.0121 42.0374 39.1671 41.4125V34.3658C38.0471 34.8171 32.5171 36.4139 32.5171 31.2764V18.9533H39.1671V11.5594H32.5171L32.5521 4.0267ZM8.89211 20.3765C8.89211 19.0227 10.0121 18.502 11.8671 18.502C14.5271 18.502 17.8871 19.3004 20.5471 20.7236V12.5661C17.6421 11.4206 14.7721 10.9693 11.8671 10.9693C4.76211 10.9693 0.0371094 14.6489 0.0371094 20.7931C0.0371094 30.3738 13.3371 28.8465 13.3371 32.9773C13.3371 34.5741 11.9371 35.0948 9.97711 35.0948C7.07211 35.0948 3.36211 33.9146 0.422109 32.3178V40.5794C3.67711 41.968 6.96711 42.5581 9.97711 42.5581C17.2571 42.5581 22.2621 38.9826 22.2621 32.769C22.2271 22.4246 8.89211 24.2644 8.89211 20.3765Z" fill="#999999"/>
</svg>
