<svg width="197" height="40" viewBox="0 0 197 40" fill="none" xmlns="http://www.w3.org/2000/svg">
<path fill-rule="evenodd" clip-rule="evenodd" d="M35.3924 0.386292H5.50103C4.26392 0.387994 3.07797 0.880213 2.2032 1.75502C1.32843 2.62984 0.836237 3.81585 0.834534 5.05302V34.9458C0.836237 36.183 1.32843 37.369 2.2032 38.2438C3.07797 39.1186 4.26392 39.6108 5.50103 39.6125H35.3924C36.6295 39.6108 37.8154 39.1186 38.6902 38.2438C39.565 37.369 40.0572 36.183 40.0589 34.9458V5.05302C40.0572 3.81585 39.565 2.62984 38.6902 1.75502C37.8154 0.880213 36.6295 0.387994 35.3924 0.386292ZM17.7305 28.6377C17.7305 29.0491 17.567 29.4437 17.2761 29.7346C16.9852 30.0255 16.5907 30.189 16.1793 30.189H9.62686C9.21545 30.189 8.8209 30.0255 8.52999 29.7346C8.23908 29.4437 8.07565 29.0491 8.07565 28.6377V9.17905C8.07565 8.76762 8.23908 8.37304 8.52999 8.08212C8.8209 7.7912 9.21545 7.62776 9.62686 7.62776H16.1793C16.5907 7.62776 16.9852 7.7912 17.2761 8.08212C17.567 8.37304 17.7305 8.76762 17.7305 9.17905V28.6377ZM32.8177 19.7033C32.822 19.9097 32.7851 20.1149 32.709 20.3069C32.633 20.4988 32.5194 20.6736 32.3749 20.8211C32.2305 20.9686 32.058 21.0857 31.8677 21.1657C31.6774 21.2457 31.473 21.2868 31.2665 21.2868H24.7141C24.3027 21.2868 23.9082 21.1233 23.6173 20.8324C23.3264 20.5415 23.1629 20.1469 23.1629 19.7355V9.17905C23.1629 8.76762 23.3264 8.37304 23.6173 8.08212C23.9082 7.7912 24.3027 7.62776 24.7141 7.62776H31.2665C31.6779 7.62776 32.0725 7.7912 32.3634 8.08212C32.6543 8.37304 32.8177 8.76762 32.8177 9.17905V19.7033Z" fill="#999999"/>
<path d="M144.845 39.4883C139.597 39.4883 136.297 36.9744 136.297 31.0292V0.0646973H144.361V29.9231C144.361 31.6388 145.492 32.2484 146.874 32.2484C147.273 32.2565 147.672 32.2376 148.068 32.1918V39.1615C147.014 39.4184 145.929 39.5284 144.845 39.4883Z" fill="#999999"/>
<path d="M81.7939 10.5159V2.9366H55.1725V10.5159H64.1531V39.2681H72.8132V10.5159H81.7939Z" fill="#999999"/>
<path d="M84.8151 39.2683H92.8216V24.4491C92.8216 19.9178 95.4485 18.5352 101.105 18.9751V10.5977C96.7746 10.3212 94.3425 12.5899 92.8216 16.4047V10.9874H84.8151V39.2683Z" fill="#999999"/>
<path d="M153.112 31.0292C153.112 36.9744 156.417 39.4883 161.665 39.4883C162.756 39.5308 163.847 39.4208 164.908 39.1615V32.1918C164.513 32.2377 164.117 32.2566 163.72 32.2484C162.312 32.2484 161.175 31.6388 161.175 29.9231V0.0646973H153.112V31.0292Z" fill="#999999"/>
<path fill-rule="evenodd" clip-rule="evenodd" d="M168.768 25.1161C168.768 16.3804 173.796 10.4037 182.456 10.4037C191.116 10.4037 196.037 16.3615 196.037 25.1161C196.037 33.8706 191.06 39.9353 182.456 39.9353C173.853 39.9353 168.768 33.7952 168.768 25.1161ZM176.618 25.1161C176.618 29.3708 178.403 32.7456 182.456 32.7456C186.51 32.7456 188.194 29.3708 188.194 25.1161C188.194 20.8614 186.466 17.5745 182.456 17.5745C178.447 17.5745 176.618 20.8551 176.618 25.1161Z" fill="#999999"/>
<path fill-rule="evenodd" clip-rule="evenodd" d="M118.662 28.0692C116.407 28.0517 114.154 27.9196 111.912 27.6732C112.641 31.7457 115.627 33.1535 119.913 33.1535C123.105 33.1535 126.216 32.2736 128.981 31.3875V38.1623C125.994 39.2932 122.824 39.86 119.63 39.834C108.864 39.834 104.101 34.4481 104.101 25.3793C104.101 16.6437 109.625 10.3905 118.247 10.3905C124.651 10.3905 129.974 14.7206 129.974 20.4836C129.974 26.4226 124.796 28.0692 118.662 28.0692ZM122.175 20.2071C122.175 18.1017 120.353 16.562 118.084 16.562V16.5746C117.031 16.5864 116 16.8786 115.098 17.4209C114.196 17.9633 113.454 18.7362 112.949 19.6603C112.32 20.8262 111.942 22.1105 111.837 23.4311C113.222 23.6464 114.621 23.7578 116.023 23.7642C119.316 23.7642 122.175 22.9158 122.175 20.2071Z" fill="#999999"/>
</svg>
